<svg width="174" height="154" viewBox="0 0 174 154" fill="none" xmlns="http://www.w3.org/2000/svg">
<g clip-path="url(#clip0_8119_8)">
<path d="M96.0786 62.8591C97.544 70.8261 98.8244 78.8215 100.29 86.7885C104.885 93.4608 109.637 100.019 114.232 106.692C120.904 111.287 127.463 116.039 134.135 120.634C142.102 122.099 150.097 123.38 158.064 124.845C166.031 123.38 174.027 122.099 181.994 120.634C188.666 116.039 195.225 111.287 201.897 106.692C206.492 100.019 211.244 93.4608 215.839 86.7885C217.304 78.8215 218.585 70.8261 220.05 62.8591C218.585 54.8922 217.304 46.8968 215.839 38.9298C211.244 32.2575 206.492 25.699 201.897 19.0266C195.225 14.4314 188.666 9.67969 181.994 5.08446C174.041 3.60489 166.046 2.32448 158.079 0.859131C150.112 2.32448 142.116 3.60489 134.149 5.07024C127.477 9.66546 120.918 14.4172 114.246 19.0124C109.651 25.6847 104.899 32.2432 100.304 38.9156C98.8244 46.8825 97.544 54.8922 96.0786 62.8591ZM106.137 84.3699C104.828 77.2139 103.661 70.0152 102.367 62.8591C103.661 55.6889 104.828 48.5044 106.137 41.3483C110.277 35.3589 114.531 29.4548 118.685 23.4654C124.674 19.3254 130.578 15.0574 136.568 10.9174C143.724 9.60856 150.923 8.44197 158.079 7.14734C165.249 8.44197 172.433 9.60856 179.589 10.9174C185.579 15.0574 191.483 19.3112 197.472 23.4654C201.612 29.4548 205.88 35.3589 210.02 41.3483C211.329 48.5044 212.496 55.7031 213.79 62.8591C212.482 70.0152 211.315 77.2139 210.006 84.3699C205.866 90.3594 201.612 96.2634 197.458 102.253C191.469 106.393 185.565 110.661 179.575 114.801C172.419 116.11 165.22 117.276 158.064 118.571C150.894 117.276 143.71 116.11 136.554 114.801C130.564 110.661 124.66 106.407 118.671 102.253C114.545 96.2634 110.277 90.3594 106.137 84.3699Z" fill="white" fill-opacity="0.05"/>
<path d="M151.15 62.8591C151.278 63.7554 151.406 64.6659 151.548 65.5621C152.089 66.2877 152.63 67.0275 153.185 67.7531C153.91 68.2937 154.636 68.8485 155.375 69.3891C156.272 69.5172 157.182 69.6594 158.079 69.7875C158.975 69.6594 159.885 69.5314 160.782 69.3891C161.507 68.8485 162.247 68.3079 162.973 67.7531C163.513 67.0275 164.068 66.3019 164.609 65.5621C164.737 64.6659 164.879 63.7554 165.007 62.8591C164.879 61.9628 164.751 61.0523 164.609 60.156C164.068 59.4304 163.527 58.6906 162.973 57.9651C162.247 57.4245 161.521 56.8696 160.782 56.329C159.885 56.201 158.975 56.0587 158.079 55.9307C157.182 56.0587 156.272 56.1867 155.375 56.329C154.65 56.8696 153.91 57.4102 153.185 57.9651C152.644 58.6906 152.089 59.4162 151.548 60.156C151.42 61.0523 151.278 61.9486 151.15 62.8591ZM156.912 63.3428C156.884 63.1863 156.869 63.0156 156.841 62.8591C156.869 62.7026 156.884 62.5319 156.912 62.3754C157.012 62.2473 157.111 62.1193 157.211 61.977C157.339 61.8774 157.467 61.7778 157.609 61.6925C157.766 61.664 157.936 61.6498 158.093 61.6213C158.249 61.6498 158.42 61.664 158.576 61.6925C158.705 61.7921 158.833 61.8917 158.975 61.977C159.074 62.1051 159.174 62.2331 159.259 62.3754C159.288 62.5319 159.302 62.7026 159.331 62.8591C159.302 63.0156 159.288 63.1863 159.259 63.3428C159.16 63.4708 159.06 63.5989 158.975 63.7411C158.847 63.8407 158.719 63.9403 158.576 64.0399C158.42 64.0683 158.249 64.0826 158.093 64.111C157.936 64.0826 157.766 64.0683 157.609 64.0399C157.481 63.9403 157.353 63.8407 157.211 63.7411C157.097 63.5989 157.012 63.4708 156.912 63.3428Z" fill="white" fill-opacity="0.05"/>
<path d="M111.301 62.8591C112.382 68.877 113.378 74.9091 114.46 80.927C117.959 85.949 121.516 90.9142 125.001 95.9362C130.024 99.4217 134.989 102.993 140.011 106.478C146.029 107.559 152.061 108.541 158.079 109.637C164.096 108.555 170.129 107.559 176.146 106.478C181.169 102.978 186.134 99.4217 191.156 95.9362C194.641 90.9142 198.212 85.949 201.698 80.927C202.779 74.9091 203.761 68.877 204.856 62.8591C203.775 56.8412 202.779 50.8091 201.698 44.7912C198.198 39.7692 194.641 34.804 191.156 29.782C186.134 26.2965 181.169 22.7256 176.146 19.24C170.129 18.1588 164.096 17.1771 158.079 16.0817C152.061 17.1629 146.029 18.1588 140.011 19.24C134.989 22.7398 130.024 26.2965 125.001 29.782C121.516 34.804 117.945 39.7692 114.46 44.7912C113.378 50.8091 112.397 56.8412 111.301 62.8591ZM144.037 68.6636C143.738 66.7288 143.454 64.7939 143.183 62.8449C143.454 60.91 143.738 58.961 144.037 57.0261C145.189 55.447 146.356 53.8678 147.537 52.3029C149.102 51.1221 150.666 49.9555 152.26 48.8031C154.195 48.5044 156.13 48.2198 158.079 47.9495C160.013 48.2198 161.962 48.5044 163.897 48.8031C165.476 49.9555 167.056 51.1221 168.621 52.3029C169.801 53.8678 170.968 55.4328 172.12 57.0261C172.419 58.961 172.704 60.8958 172.974 62.8449C172.704 64.7797 172.419 66.7288 172.12 68.6636C170.968 70.2428 169.801 71.8219 168.621 73.3869C167.056 74.5677 165.491 75.7343 163.897 76.8866C161.962 77.1854 160.028 77.4699 158.079 77.7402C156.144 77.4699 154.195 77.1854 152.26 76.8866C150.681 75.7343 149.102 74.5677 147.537 73.3869C146.37 71.8219 145.203 70.2428 144.037 68.6636ZM129.611 64.0399C129.582 63.8407 129.597 63.855 129.625 64.0968C129.668 64.3956 129.668 64.3671 129.611 64.0115C129.611 64.0257 129.611 64.0257 129.611 64.0399ZM138.787 83.815C138.631 83.7012 138.645 83.7012 138.844 83.8577C139.086 84.0427 139.057 84.0284 138.773 83.8008L138.787 83.815ZM159.259 91.3125C159.06 91.341 159.074 91.3267 159.316 91.2983C159.615 91.2556 159.587 91.2556 159.231 91.3125C159.245 91.3125 159.245 91.3125 159.259 91.3125ZM179.035 82.1505C178.921 82.307 178.921 82.2928 179.077 82.0936C179.262 81.8517 179.248 81.8802 179.02 82.1647L179.035 82.1505ZM186.532 61.6783C186.56 61.8775 186.56 61.8632 186.518 61.6214C186.475 61.3226 186.475 61.3511 186.532 61.7067C186.532 61.6925 186.532 61.6783 186.532 61.6783ZM177.37 41.9032C177.526 42.017 177.512 42.017 177.313 41.8605C177.071 41.6755 177.1 41.6898 177.384 41.9174C177.384 41.9032 177.37 41.9032 177.37 41.9032ZM156.898 34.3915C157.097 34.363 157.083 34.3772 156.827 34.4057C156.528 34.4484 156.556 34.4484 156.912 34.3915H156.898ZM137.123 43.5677C137.236 43.4112 137.236 43.4254 137.08 43.6246C136.895 43.8664 136.909 43.838 137.137 43.5535C137.123 43.5535 137.123 43.5677 137.123 43.5677ZM129.611 61.7067C129.654 61.3511 129.668 61.3084 129.625 61.6214C129.597 61.8632 129.597 61.8775 129.611 61.6783C129.611 61.6783 129.611 61.6925 129.611 61.7067ZM137.137 82.1647C136.909 81.8802 136.895 81.8517 137.08 82.0936C137.236 82.2928 137.236 82.307 137.123 82.1505C137.123 82.1505 137.123 82.1647 137.137 82.1647ZM156.926 91.3125C156.571 91.2698 156.528 91.2556 156.841 91.2983C157.083 91.3267 157.097 91.3267 156.912 91.3125C156.898 91.3125 156.912 91.3125 156.926 91.3125ZM177.384 83.8008C177.1 84.0284 177.071 84.0427 177.313 83.8577C177.512 83.7012 177.526 83.7012 177.37 83.815L177.384 83.8008ZM186.532 64.0115C186.489 64.3671 186.475 64.4098 186.518 64.0968C186.546 63.855 186.546 63.8407 186.532 64.0399C186.532 64.0257 186.532 64.0257 186.532 64.0115ZM179.02 43.5535C179.248 43.838 179.262 43.8664 179.077 43.6246C178.921 43.4254 178.921 43.4112 179.035 43.5677L179.02 43.5535ZM159.231 34.3915C159.587 34.4341 159.629 34.4484 159.316 34.4057C159.074 34.3772 159.06 34.3772 159.259 34.3915C159.245 34.3915 159.245 34.3915 159.231 34.3915ZM138.773 41.9174C139.057 41.6898 139.086 41.6755 138.844 41.8605C138.645 42.017 138.631 42.017 138.787 41.9032C138.787 41.9032 138.773 41.9032 138.773 41.9174ZM129.753 62.8591C129.682 63.044 129.639 63.2432 129.611 63.4566C129.568 63.67 129.582 63.8834 129.625 64.0968C129.625 64.2675 129.668 64.424 129.739 64.5805C129.91 64.9504 130.024 65.235 130.322 65.5195C130.991 66.1739 131.859 66.2308 132.741 66.1597C134.946 65.9463 137.023 65.1496 139.086 64.4098C139.328 66.1455 139.584 67.8811 139.84 69.6168C134.533 70.4277 126.524 71.0964 125.756 64.5378C125.684 63.9403 125.684 63.3855 125.756 62.8733C125.684 62.3612 125.684 61.8063 125.756 61.2088C126.524 54.6503 134.533 55.3189 139.84 56.1299C139.57 57.8655 139.328 59.6012 139.086 61.3368C137.009 60.597 134.946 59.8004 132.741 59.587C131.859 59.5016 130.991 59.5727 130.322 60.2272C130.024 60.5117 129.91 60.7962 129.739 61.1661C129.668 61.3226 129.625 61.4791 129.625 61.6498C129.582 61.8632 129.568 62.0766 129.611 62.29C129.639 62.475 129.682 62.6742 129.753 62.8591ZM138.047 42.8279C137.862 42.9133 137.692 43.0128 137.521 43.1551C137.336 43.2689 137.194 43.4254 137.08 43.6104C136.966 43.7384 136.867 43.8664 136.824 44.0229C136.696 44.4071 136.568 44.6774 136.568 45.1042C136.582 46.0289 137.151 46.6976 137.834 47.2666C139.541 48.6751 141.576 49.5714 143.553 50.5245C142.5 51.9188 141.448 53.3272 140.409 54.7356C136.084 51.5631 129.952 46.3703 134.035 41.1776C134.405 40.7081 134.804 40.324 135.216 40.011C135.529 39.5984 135.913 39.2001 136.383 38.8302C141.561 34.7329 146.754 40.8788 149.941 45.2038C148.532 46.2423 147.124 47.2809 145.73 48.3479C144.791 46.3561 143.895 44.3359 142.472 42.6287C141.903 41.9458 141.234 41.3768 140.309 41.3625C139.897 41.3625 139.612 41.4764 139.228 41.6186C139.072 41.6755 138.929 41.7609 138.816 41.8747C138.631 41.9885 138.488 42.1308 138.36 42.3157C138.232 42.4722 138.133 42.6429 138.047 42.8279ZM158.079 34.5337C157.894 34.4626 157.694 34.4199 157.481 34.3915C157.268 34.3488 157.054 34.363 156.841 34.4057C156.67 34.4057 156.514 34.4484 156.357 34.5195C155.987 34.6902 155.703 34.804 155.418 35.1028C154.764 35.7714 154.707 36.6393 154.778 37.5213C154.991 39.7265 155.788 41.8036 156.528 43.8664C154.792 44.1083 153.057 44.3644 151.321 44.6205C150.51 39.3139 149.841 31.3043 156.4 30.536C156.997 30.4649 157.552 30.4649 158.064 30.536C158.577 30.4649 159.131 30.4649 159.729 30.536C166.287 31.3043 165.619 39.3139 164.808 44.6205C163.072 44.3502 161.337 44.1083 159.601 43.8664C160.341 41.7893 161.137 39.7265 161.351 37.5213C161.436 36.6393 161.365 35.7714 160.711 35.1028C160.426 34.804 160.141 34.6902 159.772 34.5195C159.615 34.4484 159.459 34.4057 159.288 34.4057C159.074 34.363 158.861 34.3488 158.648 34.3915C158.463 34.4199 158.264 34.4626 158.079 34.5337ZM178.11 42.8279C178.024 42.6429 177.925 42.4722 177.783 42.3015C177.669 42.1166 177.512 41.9743 177.327 41.8605C177.199 41.7467 177.071 41.6471 176.915 41.6044C176.531 41.4764 176.26 41.3483 175.834 41.3483C174.909 41.3625 174.24 41.9316 173.671 42.6145C172.263 44.3217 171.366 46.3561 170.413 48.3336C169.019 47.2809 167.61 46.2281 166.202 45.1895C169.375 40.8646 174.567 34.7329 179.76 38.816C180.23 39.1859 180.614 39.5842 180.927 39.9968C181.339 40.3098 181.738 40.6939 182.107 41.1634C186.205 46.3419 180.059 51.5346 175.734 54.7214C174.695 53.313 173.643 51.9045 172.59 50.5103C174.582 49.5714 176.602 48.6751 178.309 47.2524C178.992 46.6833 179.561 46.0289 179.575 45.0899C179.575 44.6774 179.461 44.3928 179.319 44.0087C179.262 43.8522 179.177 43.71 179.063 43.5961C178.949 43.4112 178.793 43.2689 178.622 43.1409C178.451 43.0128 178.295 42.9133 178.11 42.8279ZM186.404 62.8591C186.475 62.6742 186.518 62.475 186.546 62.2616C186.589 62.0482 186.575 61.8348 186.532 61.6214C186.532 61.4506 186.489 61.2942 186.418 61.1377C186.247 60.7678 186.134 60.4832 185.835 60.1987C185.166 59.5443 184.298 59.4874 183.416 59.5585C181.211 59.7719 179.134 60.5686 177.071 61.3084C176.829 59.5727 176.573 57.8371 176.317 56.1014C181.624 55.2905 189.633 54.6218 190.402 61.1803C190.473 61.7779 190.473 62.3327 190.402 62.8449C190.473 63.357 190.473 63.9119 190.402 64.5094C189.633 71.0679 181.624 70.3993 176.317 69.5883C176.588 67.8527 176.829 66.117 177.071 64.3814C179.148 65.1211 181.211 65.9178 183.416 66.1312C184.298 66.2166 185.166 66.1455 185.835 65.491C186.134 65.2065 186.247 64.922 186.418 64.5521C186.489 64.3956 186.532 64.2391 186.532 64.0684C186.575 63.855 186.589 63.6416 186.546 63.4282C186.518 63.2432 186.475 63.044 186.404 62.8591ZM178.11 82.8903C178.295 82.8049 178.465 82.7054 178.636 82.5631C178.821 82.4493 178.963 82.2928 179.077 82.1078C179.191 81.9798 179.291 81.8517 179.333 81.6953C179.461 81.3111 179.589 81.0408 179.589 80.614C179.575 79.6893 179.006 79.0206 178.323 78.4516C176.616 77.0431 174.582 76.1468 172.604 75.1936C173.657 73.7994 174.71 72.391 175.748 70.9825C180.073 74.1551 186.205 79.3478 182.122 84.5406C181.752 85.0101 181.353 85.3942 180.941 85.7072C180.628 86.1198 180.244 86.5181 179.774 86.888C174.596 90.9853 169.403 84.8394 166.216 80.5144C167.625 79.4759 169.033 78.4373 170.427 77.3703C171.366 79.3621 172.263 81.3823 173.685 83.0895C174.254 83.7724 174.923 84.3414 175.848 84.3556C176.26 84.3556 176.545 84.2418 176.929 84.0996C177.085 84.0427 177.228 83.9573 177.342 83.8435C177.526 83.7297 177.669 83.5732 177.797 83.4025C177.911 83.2317 178.024 83.0752 178.11 82.8903ZM158.079 91.1845C158.264 91.2556 158.463 91.2983 158.676 91.3267C158.89 91.3694 159.103 91.3552 159.316 91.3125C159.487 91.3125 159.644 91.2698 159.8 91.1987C160.17 91.028 160.454 90.9142 160.739 90.6154C161.393 89.9467 161.45 89.0789 161.379 88.1969C161.166 85.9917 160.369 83.9146 159.629 81.8517C161.365 81.6099 163.101 81.3538 164.836 81.0977C165.647 86.4043 166.316 94.4139 159.757 95.1822C159.16 95.2533 158.605 95.2533 158.093 95.1822C157.581 95.2533 157.026 95.2533 156.428 95.1822C149.87 94.4139 150.538 86.4043 151.349 81.0977C153.085 81.368 154.821 81.6099 156.556 81.8517C155.817 83.9288 155.02 85.9917 154.806 88.1969C154.721 89.0789 154.792 89.9467 155.447 90.6154C155.731 90.9142 156.016 91.028 156.386 91.1987C156.542 91.2698 156.699 91.3125 156.869 91.3125C157.083 91.3552 157.296 91.3694 157.51 91.3267C157.694 91.2983 157.894 91.2556 158.079 91.1845ZM138.047 82.8903C138.133 83.0752 138.232 83.246 138.375 83.4167C138.488 83.6016 138.645 83.7439 138.83 83.8577C138.958 83.9715 139.086 84.0711 139.242 84.1138C139.627 84.2418 139.897 84.3699 140.324 84.3699C141.248 84.3557 141.917 83.7866 142.486 83.1037C143.895 81.3965 144.791 79.3621 145.744 77.3846C147.138 78.4373 148.547 79.4901 149.955 80.5287C146.783 84.8536 141.59 90.9853 136.397 86.9022C135.928 86.5323 135.543 86.134 135.23 85.7214C134.818 85.4084 134.42 85.0243 134.05 84.5548C129.952 79.3763 136.098 74.1836 140.423 70.9968C141.462 72.4052 142.515 73.8137 143.567 75.2079C141.576 76.1468 139.555 77.0431 137.848 78.4658C137.165 79.0349 136.596 79.7035 136.582 80.6283C136.582 81.0408 136.696 81.3254 136.838 81.7095C136.895 81.866 136.98 82.0082 137.094 82.1221C137.208 82.307 137.365 82.4493 137.535 82.5773C137.692 82.6911 137.862 82.8049 138.047 82.8903ZM120.506 62.8591C120.406 63.7127 120.435 64.6374 120.591 65.6475C121.601 71.765 126.879 73.4011 132.456 73.4722C128.558 77.4699 125.983 82.3497 129.597 87.4002C130.194 88.2253 130.834 88.894 131.503 89.4346C132.029 90.1032 132.712 90.7434 133.538 91.341C138.588 94.9545 143.468 92.3795 147.465 88.4814C147.537 94.0583 149.173 99.3364 155.29 100.346C156.3 100.517 157.225 100.531 158.079 100.432C158.932 100.531 159.857 100.503 160.867 100.346C166.985 99.3364 168.621 94.0583 168.692 88.4814C172.689 92.3795 177.569 94.9545 182.62 91.341C183.445 90.7434 184.113 90.1032 184.654 89.4346C185.323 88.9082 185.963 88.2253 186.56 87.4002C190.174 82.3497 187.599 77.4699 183.701 73.4722C189.278 73.4011 194.556 71.765 195.566 65.6475C195.737 64.6374 195.751 63.7127 195.651 62.8591C195.751 62.0055 195.722 61.0808 195.566 60.0707C194.556 53.9532 189.278 52.3171 183.701 52.246C187.599 48.2483 190.174 43.3685 186.56 38.318C185.963 37.4929 185.323 36.8242 184.654 36.2836C184.128 35.615 183.445 34.9748 182.62 34.3772C177.569 30.7636 172.689 33.3387 168.692 37.2368C168.621 31.6599 166.985 26.3818 160.867 25.3717C159.857 25.201 158.932 25.1868 158.079 25.2864C157.225 25.1868 156.3 25.2152 155.29 25.3717C149.173 26.3818 147.537 31.6599 147.465 37.2368C143.468 33.3387 138.588 30.7636 133.538 34.3772C132.712 34.9748 132.044 35.615 131.503 36.2836C130.834 36.81 130.194 37.4929 129.597 38.318C125.983 43.3685 128.558 48.2483 132.456 52.246C126.879 52.3171 121.601 53.9532 120.591 60.0707C120.435 61.0808 120.406 62.0055 120.506 62.8591ZM118.116 79.4048C117.134 73.899 116.224 68.3648 115.242 62.8591C116.224 57.3391 117.134 51.8192 118.116 46.3134C121.317 41.7182 124.575 37.1657 127.776 32.5704C132.371 29.3694 136.923 26.1115 141.519 22.9105C147.024 21.9289 152.559 21.0184 158.064 20.0367C163.584 21.0184 169.104 21.9289 174.61 22.9105C179.205 26.1115 183.758 29.3694 188.353 32.5704C191.554 37.1657 194.812 41.7182 198.013 46.3134C198.995 51.8192 199.905 57.3534 200.887 62.8591C199.905 68.3648 198.995 73.899 198.013 79.4048C194.812 84 191.554 88.5525 188.353 93.1478C183.758 96.3488 179.205 99.6067 174.61 102.808C169.104 103.789 163.57 104.7 158.064 105.681C152.544 104.7 147.024 103.789 141.519 102.808C136.923 99.6067 132.371 96.3488 127.776 93.1478C124.589 88.5525 121.317 84 118.116 79.4048Z" fill="white" fill-opacity="0.05"/>
</g>
<g clip-path="url(#clip1_8119_8)">
<path d="M-40.291 150.637C-39.3338 155.905 -38.4974 161.192 -37.5402 166.461C-34.5385 170.873 -31.4345 175.21 -28.4328 179.623C-24.0743 182.661 -19.7901 185.804 -15.4316 188.842C-10.2273 189.811 -5.00453 190.658 0.199688 191.627C5.40391 190.658 10.6267 189.811 15.8309 188.842C20.1895 185.804 24.4737 182.661 28.8322 179.623C31.8339 175.21 34.9379 170.873 37.9396 166.461C38.8968 161.192 39.7332 155.905 40.6904 150.637C39.7332 145.368 38.8968 140.081 37.9396 134.812C34.9379 130.4 31.8339 126.063 28.8322 121.651C24.4737 118.612 20.1895 115.47 15.8309 112.431C10.636 111.452 5.41321 110.606 0.208984 109.637C-4.99524 110.606 -10.218 111.452 -15.4223 112.421C-19.7808 115.46 -24.065 118.602 -28.4235 121.641C-31.4253 126.054 -34.5292 130.391 -37.5309 134.803C-38.4974 140.071 -39.3338 145.368 -40.291 150.637ZM-33.7207 164.861C-34.5757 160.129 -35.3377 155.369 -36.1834 150.637C-35.3377 145.895 -34.5757 141.144 -33.7207 136.412C-31.0163 132.451 -28.2377 128.547 -25.524 124.586C-21.6116 121.848 -17.7549 119.026 -13.8424 116.288C-9.16791 115.423 -4.46552 114.651 0.208984 113.795C4.89278 114.651 9.58588 115.423 14.2604 116.288C18.1728 119.026 22.0295 121.839 25.942 124.586C28.6463 128.547 31.4343 132.451 34.1386 136.412C34.9936 141.144 35.7557 145.904 36.6014 150.637C35.7464 155.369 34.9843 160.129 34.1294 164.861C31.425 168.822 28.6463 172.727 25.9327 176.687C22.0203 179.425 18.1635 182.247 14.2511 184.985C9.57658 185.851 4.8742 186.622 0.199688 187.478C-4.48411 186.622 -9.1772 185.851 -13.8517 184.985C-17.7642 182.247 -21.6209 179.434 -25.5333 176.687C-28.2284 172.727 -31.0163 168.822 -33.7207 164.861Z" fill="white" fill-opacity="0.03"/>
<path d="M-4.31683 150.637C-4.23319 151.229 -4.14955 151.831 -4.05662 152.424C-3.70348 152.904 -3.35033 153.393 -2.9879 153.873C-2.51394 154.23 -2.03998 154.597 -1.55674 154.955C-0.971261 155.04 -0.376491 155.134 0.208984 155.218C0.794459 155.134 1.38923 155.049 1.9747 154.955C2.44866 154.597 2.93191 154.24 3.40586 153.873C3.75901 153.393 4.12144 152.913 4.47459 152.424C4.55822 151.831 4.65116 151.229 4.7348 150.637C4.65116 150.044 4.56752 149.442 4.47459 148.849C4.12144 148.369 3.7683 147.88 3.40586 147.4C2.93191 147.043 2.45795 146.676 1.9747 146.318C1.38923 146.234 0.794459 146.14 0.208984 146.055C-0.376491 146.14 -0.971261 146.224 -1.55674 146.318C-2.03069 146.676 -2.51394 147.033 -2.9879 147.4C-3.34104 147.88 -3.70348 148.36 -4.05662 148.849C-4.14026 149.442 -4.23319 150.034 -4.31683 150.637ZM-0.553066 150.956C-0.571652 150.853 -0.580945 150.74 -0.599531 150.637C-0.580945 150.533 -0.571652 150.42 -0.553066 150.317C-0.488013 150.232 -0.422958 150.147 -0.357905 150.053C-0.274265 149.987 -0.190627 149.922 -0.0976949 149.865C0.00453091 149.846 0.11605 149.837 0.218276 149.818C0.320502 149.837 0.432021 149.846 0.534247 149.865C0.617886 149.931 0.701524 149.997 0.794457 150.053C0.859509 150.138 0.924563 150.223 0.980323 150.317C0.998909 150.42 1.0082 150.533 1.02679 150.637C1.0082 150.74 0.998909 150.853 0.980323 150.956C0.91527 151.041 0.850216 151.126 0.794457 151.22C0.710817 151.286 0.62718 151.352 0.534247 151.417C0.432021 151.436 0.320502 151.446 0.218276 151.464C0.11605 151.446 0.00453091 151.436 -0.0976949 151.417C-0.181334 151.352 -0.264972 151.286 -0.357905 151.22C-0.432251 151.126 -0.488013 151.041 -0.553066 150.956Z" fill="white" fill-opacity="0.03"/>
<path d="M-30.3473 150.637C-29.641 154.616 -28.9905 158.605 -28.2842 162.585C-25.998 165.906 -23.6747 169.189 -21.3979 172.51C-18.1174 174.815 -14.874 177.176 -11.5935 179.481C-7.66246 180.196 -3.72212 180.846 0.208923 181.57C4.13997 180.855 8.08031 180.196 12.0114 179.481C15.2919 177.167 18.5352 174.815 21.8157 172.51C24.0926 169.189 26.4252 165.906 28.702 162.585C29.4083 158.605 30.0496 154.616 30.7651 150.637C30.0589 146.657 29.4083 142.668 28.702 138.688C26.4159 135.367 24.0926 132.084 21.8157 128.763C18.5352 126.458 15.2919 124.097 12.0114 121.792C8.08031 121.077 4.13997 120.428 0.208923 119.703C-3.72212 120.418 -7.66246 121.077 -11.5935 121.792C-14.874 124.106 -18.1174 126.458 -21.3979 128.763C-23.6747 132.084 -26.0073 135.367 -28.2842 138.688C-28.9905 142.668 -29.6317 146.657 -30.3473 150.637ZM-8.96352 154.475C-9.15868 153.196 -9.34454 151.916 -9.52111 150.627C-9.34454 149.348 -9.15868 148.059 -8.96352 146.779C-8.21076 145.735 -7.44872 144.691 -6.67738 143.656C-5.65512 142.875 -4.63286 142.104 -3.59202 141.341C-2.32813 141.144 -1.06425 140.956 0.208923 140.777C1.47281 140.956 2.74598 141.144 4.00986 141.341C5.04141 142.104 6.07297 142.875 7.09522 143.656C7.86657 144.691 8.62861 145.726 9.38136 146.779C9.57652 148.059 9.76239 149.338 9.93896 150.627C9.76239 151.907 9.57652 153.196 9.38136 154.475C8.62861 155.519 7.86657 156.564 7.09522 157.598C6.07297 158.379 5.0507 159.151 4.00986 159.913C2.74598 160.11 1.4821 160.299 0.208923 160.477C-1.05496 160.299 -2.32813 160.11 -3.59202 159.913C-4.62357 159.151 -5.65512 158.379 -6.67738 157.598C-7.43943 156.564 -8.20147 155.519 -8.96352 154.475ZM-18.3869 151.417C-18.4055 151.286 -18.3962 151.295 -18.3776 151.455C-18.3497 151.653 -18.3497 151.634 -18.3869 151.399C-18.3869 151.408 -18.3869 151.408 -18.3869 151.417ZM-12.3927 164.495C-12.495 164.419 -12.4857 164.419 -12.3556 164.523C-12.1976 164.645 -12.2162 164.636 -12.402 164.485L-12.3927 164.495ZM0.980263 169.453C0.850157 169.471 0.859451 169.462 1.01744 169.443C1.21259 169.415 1.19401 169.415 0.961676 169.453C0.970968 169.453 0.970968 169.453 0.980263 169.453ZM13.8979 163.394C13.8235 163.497 13.8235 163.488 13.9258 163.356C14.0466 163.196 14.0373 163.215 13.8886 163.403L13.8979 163.394ZM18.7954 149.856C18.814 149.987 18.814 149.978 18.7861 149.818C18.7583 149.62 18.7583 149.639 18.7954 149.875C18.7954 149.865 18.7954 149.856 18.7954 149.856ZM12.8106 136.779C12.9128 136.854 12.9035 136.854 12.7734 136.75C12.6154 136.628 12.634 136.637 12.8199 136.788C12.8199 136.779 12.8106 136.779 12.8106 136.779ZM-0.562418 131.811C-0.432312 131.792 -0.441605 131.802 -0.608883 131.821C-0.804041 131.849 -0.785458 131.849 -0.553125 131.811H-0.562418ZM-13.48 137.879C-13.4057 137.776 -13.4057 137.785 -13.5079 137.917C-13.6287 138.077 -13.6194 138.058 -13.4707 137.87C-13.48 137.87 -13.48 137.879 -13.48 137.879ZM-18.3869 149.875C-18.359 149.639 -18.3497 149.611 -18.3776 149.818C-18.3962 149.978 -18.3962 149.987 -18.3869 149.856C-18.3869 149.856 -18.3869 149.865 -18.3869 149.875ZM-13.4707 163.403C-13.6194 163.215 -13.6287 163.196 -13.5079 163.356C-13.4057 163.488 -13.4057 163.497 -13.48 163.394C-13.48 163.394 -13.48 163.403 -13.4707 163.403ZM-0.543831 169.453C-0.776161 169.424 -0.804043 169.415 -0.59959 169.443C-0.441607 169.462 -0.432314 169.462 -0.553125 169.453C-0.562418 169.453 -0.553123 169.453 -0.543831 169.453ZM12.8199 164.485C12.634 164.636 12.6154 164.645 12.7734 164.523C12.9035 164.419 12.9128 164.419 12.8106 164.495L12.8199 164.485ZM18.7954 151.399C18.7675 151.634 18.7583 151.662 18.7861 151.455C18.8047 151.295 18.8047 151.286 18.7954 151.417C18.7954 151.408 18.7954 151.408 18.7954 151.399ZM13.8886 137.87C14.0373 138.058 14.0466 138.077 13.9258 137.917C13.8235 137.785 13.8235 137.776 13.8979 137.879L13.8886 137.87ZM0.961676 131.811C1.19401 131.839 1.22189 131.849 1.01744 131.821C0.859451 131.802 0.850157 131.802 0.980263 131.811C0.970968 131.811 0.970968 131.811 0.961676 131.811ZM-12.402 136.788C-12.2162 136.637 -12.1976 136.628 -12.3556 136.75C-12.4857 136.854 -12.495 136.854 -12.3927 136.779C-12.3927 136.779 -12.402 136.779 -12.402 136.788ZM-18.2939 150.637C-18.3404 150.759 -18.3683 150.891 -18.3869 151.032C-18.4148 151.173 -18.4055 151.314 -18.3776 151.455C-18.3776 151.568 -18.3497 151.671 -18.3032 151.775C-18.1917 152.02 -18.1174 152.208 -17.9222 152.396C-17.4854 152.829 -16.9185 152.866 -16.3424 152.819C-14.9019 152.678 -13.5451 152.151 -12.1976 151.662C-12.0396 152.81 -11.8723 153.958 -11.705 155.105C-15.1714 155.642 -20.4035 156.084 -20.9053 151.747C-20.9518 151.352 -20.9518 150.985 -20.9053 150.646C-20.9518 150.307 -20.9518 149.94 -20.9053 149.545C-20.4035 145.208 -15.1714 145.65 -11.705 146.187C-11.8816 147.334 -12.0396 148.482 -12.1976 149.63C-13.5544 149.141 -14.9019 148.614 -16.3424 148.473C-16.9185 148.416 -17.4854 148.463 -17.9222 148.896C-18.1174 149.084 -18.1917 149.272 -18.3032 149.517C-18.3497 149.62 -18.3776 149.724 -18.3776 149.837C-18.4055 149.978 -18.4148 150.119 -18.3869 150.26C-18.3683 150.383 -18.3404 150.514 -18.2939 150.637ZM-12.876 137.39C-12.9968 137.447 -13.1083 137.512 -13.2198 137.607C-13.3406 137.682 -13.4336 137.785 -13.5079 137.908C-13.5823 137.992 -13.6473 138.077 -13.6752 138.18C-13.7588 138.434 -13.8425 138.613 -13.8425 138.895C-13.8332 139.507 -13.4614 139.949 -13.0154 140.325C-11.9002 141.257 -10.5713 141.85 -9.27949 142.48C-9.96719 143.402 -10.6549 144.333 -11.3333 145.265C-14.1584 143.167 -18.1638 139.733 -15.4967 136.299C-15.255 135.988 -14.9948 135.734 -14.7253 135.527C-14.5209 135.255 -14.27 134.991 -13.9633 134.746C-10.5805 132.037 -7.18851 136.101 -5.10682 138.961C-6.02685 139.648 -6.94688 140.335 -7.85762 141.04C-8.47097 139.723 -9.05645 138.387 -9.98577 137.258C-10.3575 136.807 -10.7943 136.431 -11.3983 136.421C-11.6679 136.421 -11.8537 136.496 -12.1046 136.59C-12.2069 136.628 -12.2998 136.685 -12.3741 136.76C-12.495 136.835 -12.5879 136.929 -12.6715 137.051C-12.7552 137.155 -12.8202 137.268 -12.876 137.39ZM0.208923 131.905C0.0881119 131.858 -0.041996 131.83 -0.181395 131.811C-0.320793 131.783 -0.460192 131.792 -0.59959 131.821C-0.711111 131.821 -0.813335 131.849 -0.915562 131.896C-1.15719 132.009 -1.34305 132.084 -1.52892 132.282C-1.95641 132.724 -1.99358 133.298 -1.94711 133.881C-1.80771 135.339 -1.28729 136.713 -0.804041 138.077C-1.93782 138.237 -3.07159 138.406 -4.20537 138.576C-4.73509 135.066 -5.17187 129.77 -0.88768 129.262C-0.497364 129.215 -0.134928 129.215 0.199629 129.262C0.534185 129.215 0.896626 129.215 1.28694 129.262C5.57113 129.77 5.13435 135.066 4.60463 138.576C3.47086 138.397 2.33708 138.237 1.2033 138.077C1.68655 136.703 2.20697 135.339 2.34637 133.881C2.40213 133.298 2.35566 132.724 1.92817 132.282C1.74231 132.084 1.55644 132.009 1.31482 131.896C1.21259 131.849 1.11037 131.821 0.99885 131.821C0.859451 131.792 0.720051 131.783 0.580652 131.811C0.459841 131.83 0.329737 131.858 0.208923 131.905ZM13.2938 137.39C13.2381 137.268 13.173 137.155 13.0801 137.042C13.0057 136.92 12.9035 136.826 12.7827 136.75C12.6991 136.675 12.6154 136.609 12.5132 136.581C12.2623 136.496 12.0857 136.412 11.8069 136.412C11.2028 136.421 10.7661 136.797 10.3943 137.249C9.4743 138.378 8.88882 139.723 8.26617 141.031C7.35543 140.335 6.4354 139.639 5.51537 138.952C7.58776 136.092 10.9798 132.037 14.3718 134.737C14.6785 134.982 14.9294 135.245 15.1339 135.518C15.4034 135.725 15.6636 135.979 15.9052 136.289C18.5817 139.714 14.567 143.148 11.7419 145.255C11.0634 144.324 10.3757 143.392 9.68804 142.47C10.9891 141.85 12.3087 141.257 13.4239 140.316C13.87 139.94 14.2417 139.507 14.251 138.886C14.251 138.613 14.1767 138.425 14.0837 138.171C14.0466 138.067 13.9908 137.973 13.9165 137.898C13.8421 137.776 13.7399 137.682 13.6284 137.597C13.5169 137.512 13.4146 137.447 13.2938 137.39ZM18.7118 150.637C18.7583 150.514 18.7861 150.383 18.8047 150.241C18.8326 150.1 18.8233 149.959 18.7954 149.818C18.7954 149.705 18.7675 149.602 18.7211 149.498C18.6096 149.254 18.5352 149.065 18.3401 148.877C17.9033 148.444 17.3364 148.407 16.7602 148.454C15.3198 148.595 13.9629 149.122 12.6154 149.611C12.4574 148.463 12.2902 147.316 12.1229 146.168C15.5893 145.632 20.8214 145.189 21.3232 149.526C21.3697 149.922 21.3697 150.288 21.3232 150.627C21.3697 150.966 21.3697 151.333 21.3232 151.728C20.8214 156.065 15.5893 155.623 12.1229 155.087C12.2994 153.939 12.4574 152.791 12.6154 151.643C13.9722 152.132 15.3198 152.659 16.7602 152.8C17.3364 152.857 17.9033 152.81 18.3401 152.377C18.5352 152.189 18.6096 152.001 18.7211 151.756C18.7675 151.653 18.7954 151.549 18.7954 151.436C18.8233 151.295 18.8326 151.154 18.8047 151.013C18.7861 150.891 18.7583 150.759 18.7118 150.637ZM13.2938 163.883C13.4146 163.827 13.5262 163.761 13.6377 163.667C13.7585 163.591 13.8514 163.488 13.9258 163.366C14.0001 163.281 14.0652 163.196 14.093 163.093C14.1767 162.839 14.2603 162.66 14.2603 162.378C14.251 161.766 13.8793 161.324 13.4332 160.948C12.318 160.016 10.9891 159.424 9.69733 158.793C10.385 157.871 11.0727 156.94 11.7511 156.009C14.5763 158.106 18.5817 161.54 15.9145 164.974C15.6729 165.285 15.4127 165.539 15.1432 165.746C14.9387 166.019 14.6878 166.282 14.3811 166.527C10.9984 169.236 7.60635 165.172 5.52466 162.312C6.44469 161.625 7.36473 160.938 8.27546 160.233C8.88882 161.55 9.47429 162.886 10.4036 164.015C10.7753 164.466 11.2121 164.843 11.8162 164.852C12.0857 164.852 12.2716 164.777 12.5225 164.683C12.6247 164.645 12.7176 164.589 12.792 164.513C12.9128 164.438 13.0057 164.335 13.0894 164.222C13.1637 164.109 13.2381 164.005 13.2938 163.883ZM0.208923 169.368C0.329737 169.415 0.459841 169.443 0.599239 169.462C0.738638 169.49 0.878036 169.481 1.01744 169.453C1.12896 169.453 1.23118 169.424 1.33341 169.377C1.57503 169.264 1.76089 169.189 1.94676 168.992C2.37425 168.549 2.41143 167.975 2.36496 167.392C2.22556 165.934 1.70514 164.56 1.22189 163.196C2.35566 163.036 3.48944 162.867 4.62322 162.698C5.15294 166.207 5.58971 171.503 1.30552 172.012C0.915209 172.059 0.552773 172.059 0.218216 172.012C-0.116341 172.059 -0.478781 172.059 -0.869097 172.012C-5.15329 171.503 -4.7165 166.207 -4.18679 162.698C-3.05301 162.876 -1.91923 163.036 -0.785458 163.196C-1.26871 164.57 -1.78913 165.934 -1.92853 167.392C-1.98429 167.975 -1.93782 168.549 -1.51033 168.992C-1.32446 169.189 -1.1386 169.264 -0.896975 169.377C-0.794748 169.424 -0.692524 169.453 -0.581005 169.453C-0.441605 169.481 -0.302206 169.49 -0.162807 169.462C-0.0419941 169.443 0.0881119 169.415 0.208923 169.368ZM-12.876 163.883C-12.8202 164.005 -12.7552 164.118 -12.6622 164.231C-12.5879 164.353 -12.4857 164.447 -12.3648 164.523C-12.2812 164.598 -12.1976 164.664 -12.0953 164.692C-11.8444 164.777 -11.6679 164.861 -11.3891 164.861C-10.785 164.852 -10.3482 164.476 -9.97648 164.024C-9.05645 162.895 -8.47098 161.55 -7.84833 160.242C-6.93759 160.938 -6.01756 161.634 -5.09752 162.321C-7.16992 165.181 -10.562 169.236 -13.954 166.536C-14.2607 166.291 -14.5116 166.028 -14.716 165.755C-14.9855 165.548 -15.2458 165.294 -15.4874 164.984C-18.1638 161.559 -14.1492 158.125 -11.324 156.018C-10.6456 156.949 -9.9579 157.881 -9.27019 158.803C-10.5712 159.424 -11.8909 160.016 -13.0061 160.957C-13.4522 161.333 -13.8239 161.776 -13.8332 162.387C-13.8332 162.66 -13.7588 162.848 -13.6659 163.102C-13.6287 163.206 -13.573 163.3 -13.4986 163.375C-13.4243 163.497 -13.3221 163.591 -13.2105 163.676C-13.1083 163.751 -12.9968 163.827 -12.876 163.883ZM-24.3346 150.637C-24.3996 151.201 -24.381 151.813 -24.2788 152.481C-23.619 156.526 -20.1712 157.608 -16.5282 157.655C-19.0746 160.299 -20.7567 163.525 -18.3962 166.865C-18.0059 167.411 -17.5877 167.853 -17.1509 168.211C-16.807 168.653 -16.3609 169.076 -15.8219 169.471C-12.5228 171.861 -9.33525 170.158 -6.72384 167.58C-6.67738 171.268 -5.60865 174.759 -1.61256 175.427C-0.952736 175.539 -0.348671 175.549 0.208923 175.483C0.76652 175.549 1.37058 175.53 2.0304 175.427C6.0265 174.759 7.09522 171.268 7.14169 167.58C9.75309 170.158 12.9407 171.861 16.2398 169.471C16.7788 169.076 17.2156 168.653 17.5687 168.211C18.0055 167.863 18.4237 167.411 18.814 166.865C21.1745 163.525 19.4924 160.299 16.9461 157.655C20.589 157.608 24.0368 156.526 24.6966 152.481C24.8082 151.813 24.8175 151.201 24.7524 150.637C24.8175 150.072 24.7989 149.461 24.6966 148.793C24.0368 144.747 20.589 143.665 16.9461 143.618C19.4924 140.975 21.1745 137.748 18.814 134.408C18.4237 133.862 18.0055 133.42 17.5687 133.062C17.2249 132.62 16.7788 132.197 16.2398 131.802C12.9407 129.412 9.75309 131.115 7.14169 133.693C7.09522 130.005 6.0265 126.514 2.0304 125.847C1.37058 125.734 0.76652 125.724 0.208923 125.79C-0.348671 125.724 -0.952736 125.743 -1.61256 125.847C-5.60865 126.514 -6.67738 130.005 -6.72384 133.693C-9.33525 131.115 -12.5228 129.412 -15.8219 131.802C-16.3609 132.197 -16.7977 132.62 -17.1509 133.062C-17.5877 133.411 -18.0059 133.862 -18.3962 134.408C-20.7567 137.748 -19.0746 140.975 -16.5282 143.618C-20.1712 143.665 -23.619 144.747 -24.2788 148.793C-24.381 149.461 -24.3996 150.072 -24.3346 150.637ZM-25.8958 161.578C-26.5371 157.937 -27.1318 154.277 -27.7731 150.637C-27.1318 146.986 -26.5371 143.336 -25.8958 139.695C-23.8048 136.656 -21.6767 133.646 -19.5857 130.607C-16.584 128.49 -13.6101 126.336 -10.6084 124.219C-7.01193 123.57 -3.39686 122.968 0.199629 122.319C3.80541 122.968 7.41119 123.57 11.0077 124.219C14.0094 126.336 16.9832 128.49 19.985 130.607C22.0759 133.646 24.2041 136.656 26.2951 139.695C26.9363 143.336 27.5311 146.996 28.1723 150.637C27.5311 154.277 26.9363 157.937 26.2951 161.578C24.2041 164.617 22.0759 167.627 19.985 170.666C16.9832 172.783 14.0094 174.937 11.0077 177.054C7.41119 177.703 3.79612 178.305 0.199629 178.955C-3.40615 178.305 -7.01193 177.703 -10.6084 177.054C-13.6101 174.937 -16.584 172.783 -19.5857 170.666C-21.6674 167.627 -23.8048 164.617 -25.8958 161.578Z" fill="white" fill-opacity="0.03"/>
</g>
<defs>
<clipPath id="clip0_8119_8">
<rect width="124" height="124" fill="white" transform="translate(96.0786 0.859131)"/>
</clipPath>
<clipPath id="clip1_8119_8">
<rect width="81" height="82" fill="white" transform="translate(-40.291 109.637)"/>
</clipPath>
</defs>
</svg>
